<svg width="133" height="64" viewBox="0 0 133 64" fill="none" xmlns="http://www.w3.org/2000/svg">
<g clip-path="url(#clip0_346_3425)">
<path d="M7.97586 10.4114C7.97586 10.9218 7.87227 11.33 7.66511 11.7383C7.45794 12.1466 7.25078 12.3508 6.94003 12.657C6.62928 12.8611 6.31854 13.0653 6.00779 13.2694C5.69704 13.3715 5.28271 13.4736 4.86838 13.4736V14.3922H3.10748V13.4736C2.58956 13.3715 2.07165 13.2694 1.65732 13.0653C1.24299 12.8611 0.932243 12.657 0.725078 12.3508C0.517913 12.0446 0.310748 11.7383 0.207165 11.33C0.103583 10.9218 0 10.5135 0 10.0031V6.22638C0 5.71601 0.103583 5.30772 0.310748 4.89942C0.41433 4.5932 0.725078 4.28698 0.932243 4.08284C1.24299 3.77662 1.55374 3.67454 1.96807 3.4704C2.3824 3.26625 2.69315 3.26625 3.10748 3.26625V2.65381H4.97196V3.26625C5.38629 3.26625 5.69704 3.36832 6.11137 3.4704C6.42212 3.57247 6.73287 3.77662 7.04361 4.08284C7.35436 4.28698 7.56153 4.69528 7.76869 5.0015C7.97586 5.40979 8.07944 5.81808 8.07944 6.32845V10.4114H7.97586ZM3.10748 4.69528C2.69315 4.79735 2.3824 4.89942 2.07165 5.10357C1.86449 5.40979 1.7609 5.71601 1.7609 6.1243V10.6155C1.7609 10.8197 1.7609 11.0238 1.86449 11.228C1.96807 11.4321 2.07165 11.5342 2.17523 11.6363C2.27882 11.7383 2.48598 11.8404 2.58956 11.9425C2.79673 12.0446 2.90031 12.0446 3.10748 12.0446V4.69528ZM6.31854 6.1243C6.31854 5.71601 6.21495 5.40979 5.90421 5.10357C5.69704 4.89942 5.38629 4.79735 4.97196 4.69528V11.9425C5.07555 11.9425 5.28271 11.8404 5.38629 11.8404C5.59346 11.7383 5.69704 11.6363 5.80062 11.5342C5.90421 11.4321 6.00779 11.33 6.11137 11.1259C6.21495 10.9218 6.21495 10.8197 6.21495 10.6155V6.1243H6.31854Z" fill="white"/>
<path d="M17.1947 11.33C17.1947 12.3508 16.9875 13.1674 16.4696 13.6777C15.9517 14.1881 15.2266 14.4943 14.2944 14.4943C13.2585 14.4943 12.5335 14.2902 12.1191 13.7798C11.7048 13.2694 11.394 12.5549 11.394 11.6363V5.71601C11.394 5.30772 11.4976 4.79735 11.6012 4.49113C11.7048 4.08284 11.912 3.77662 12.1191 3.4704C12.3263 3.16418 12.637 2.96003 13.0514 2.85796C13.4657 2.75588 13.88 2.65381 14.3979 2.65381C14.9158 2.65381 15.4338 2.75588 15.7445 2.85796C16.0553 2.85796 16.366 3.0621 16.5732 3.36832C16.7803 3.67454 16.9875 3.98076 17.0911 4.38906C17.1947 4.79735 17.1947 5.20564 17.1947 5.71601V11.33ZM15.3302 5.51186C15.3302 5.20564 15.2266 4.89942 15.123 4.5932C15.0194 4.28698 14.7087 4.18491 14.2944 4.18491C14.0872 4.18491 13.88 4.18491 13.7764 4.28698C13.5693 4.49113 13.4657 4.5932 13.4657 4.79735C13.3621 4.89942 13.3621 5.10357 13.3621 5.30772C13.3621 5.51186 13.3621 5.61394 13.3621 5.81808V11.7383C13.3621 12.0446 13.4657 12.3508 13.5693 12.5549C13.6729 12.7591 13.9836 12.9632 14.3979 12.9632C14.8123 12.9632 15.0194 12.8611 15.2266 12.5549C15.4338 12.3508 15.4338 12.0446 15.4338 11.6363V5.51186H15.3302Z" fill="white"/>
<path d="M24.6524 14.3922V9.28858H22.4772V14.3922H20.7163V2.65381H22.5808V7.55333H24.756V2.65381H26.6205V14.3922H24.6524Z" fill="white"/>
<path d="M30.9712 14.3922V16.6378H29.4175V12.8611L30.1426 12.7591C30.4533 12.4528 30.6605 12.0445 30.7641 11.6362C30.8676 11.2279 30.9712 10.6155 30.9712 9.901L31.1784 2.75586H36.5647V12.8611H37.2898V16.7399H35.736V14.4943H30.9712V14.3922ZM32.6285 9.79892C32.6285 10.5134 32.525 11.0238 32.525 11.5342C32.4214 12.0445 32.3178 12.4528 32.1106 12.7591H34.7002V4.38903H32.8357L32.6285 9.79892Z" fill="white"/>
<path d="M48.4768 2.55176C48.9947 2.55176 49.4091 2.65383 49.7198 2.7559C50.0306 2.85798 50.3413 3.06212 50.6521 3.26627C50.8592 3.47042 51.0664 3.77664 51.17 4.08286C51.2736 4.38908 51.3771 4.79737 51.3771 5.20567L49.6162 5.61396C49.6162 5.20567 49.5127 4.79737 49.4091 4.59323C49.2019 4.28701 48.9948 4.18493 48.5804 4.18493C48.3733 4.18493 48.1661 4.18493 48.0625 4.287C47.9589 4.38908 47.8553 4.49115 47.7518 4.59323C47.6482 4.6953 47.6482 4.89945 47.6482 5.00152C47.6482 5.20567 47.6482 5.30774 47.6482 5.51189V11.4321C47.6482 11.5342 47.6482 11.6363 47.6482 11.8404C47.6482 11.9425 47.7518 12.1467 47.7518 12.2487C47.8553 12.3508 47.9589 12.4529 48.0625 12.5549C48.1661 12.657 48.3733 12.657 48.5804 12.657C49.3055 12.657 49.6162 12.1467 49.6162 11.228C49.927 11.3301 50.2377 11.3301 50.5485 11.3301C50.8592 11.3301 51.17 11.4321 51.4807 11.4321C51.4807 12.3508 51.17 13.0653 50.7557 13.5757C50.2377 14.086 49.6162 14.3923 48.684 14.3923C47.6482 14.3923 46.9231 14.1881 46.5088 13.6778C45.9909 13.1674 45.7837 12.4529 45.7837 11.5342V5.71603C45.7837 5.30774 45.7837 4.89945 45.8873 4.49115C45.9909 4.08286 46.198 3.77664 46.4052 3.47042C46.6124 3.1642 46.9231 2.96005 47.3374 2.7559C47.441 2.65383 47.8553 2.55176 48.4768 2.55176Z" fill="white"/>
<path d="M60.078 11.33C60.078 12.3508 59.8708 13.1674 59.3529 13.6777C58.835 14.1881 58.1099 14.4943 57.1777 14.4943C56.1418 14.4943 55.4167 14.2902 55.0024 13.7798C54.5881 13.2694 54.2773 12.5549 54.2773 11.6363V5.71601C54.2773 5.30772 54.3809 4.79735 54.4845 4.49113C54.5881 4.08284 54.7953 3.77662 55.0024 3.4704C55.2096 3.16418 55.5203 2.96003 55.9347 2.85796C56.349 2.75588 56.7633 2.65381 57.2812 2.65381C57.7991 2.65381 58.3171 2.75588 58.6278 2.85796C59.0421 2.96003 59.2493 3.16418 59.5601 3.4704C59.7672 3.77662 59.9744 4.08284 60.078 4.49113C60.078 4.69528 60.078 5.20564 60.078 5.61394V11.33ZM58.2135 5.51186C58.2135 5.20564 58.1099 4.89942 58.0063 4.5932C57.9027 4.28698 57.592 4.18491 57.1777 4.18491C56.9705 4.18491 56.7633 4.18491 56.6597 4.28698C56.5562 4.38906 56.4526 4.49113 56.349 4.5932C56.2454 4.69528 56.2454 4.89942 56.1418 5.10357C56.1418 5.30772 56.1418 5.40979 56.1418 5.61394V11.5342C56.1418 11.8404 56.2454 12.1466 56.349 12.3508C56.5562 12.5549 56.7633 12.7591 57.1777 12.7591C57.592 12.7591 57.7991 12.657 58.0063 12.3508C58.2135 12.1466 58.2135 11.8404 58.2135 11.4321V5.51186Z" fill="white"/>
<path d="M64.4283 14.3922V16.6378H62.8745V12.8611L63.5996 12.7591C63.9103 12.4528 64.1175 12.0445 64.2211 11.6362C64.3247 11.2279 64.4283 10.6155 64.4283 9.901L64.6354 2.75586H70.0217V12.8611H70.7468V16.7399H69.1931V14.4943H64.4283V14.3922ZM66.0856 9.79892C66.0856 10.5134 65.982 11.0238 65.982 11.5342C65.8784 12.0445 65.7748 12.4528 65.5677 12.7591H68.1572V4.38903H66.2927L66.0856 9.79892Z" fill="white"/>
<path d="M73.751 14.3922V2.65381H79.0337V4.38906H75.6155V7.55333H78.6194V9.28858H75.6155V12.657H79.0337V14.3922H73.751Z" fill="white"/>
<path d="M86.388 7.04306L83.902 14.3923H82.1411V2.65391H83.902V10.1053L86.388 2.65391H88.1489V14.3923H86.2844L86.388 7.04306ZM84.1092 0C84.1092 0.102073 84.1092 0.204147 84.2128 0.408293C84.3163 0.510367 84.3163 0.61244 84.4199 0.816587C84.5235 0.91866 84.6271 1.02073 84.7307 1.12281C84.8343 1.22488 85.0414 1.22488 85.145 1.22488C85.3522 1.22488 85.4558 1.22488 85.5593 1.12281C85.6629 1.02073 85.7665 0.91866 85.8701 0.816587C85.9737 0.714514 86.0772 0.61244 86.0772 0.408293C86.0772 0.30622 86.1808 0.204147 86.1808 0H87.5274C87.5274 0.204147 87.4238 0.510367 87.3202 0.816587C87.4238 1.02073 87.2167 1.32695 87.0095 1.5311C86.8023 1.73525 86.5952 1.93939 86.2844 2.14354C85.9737 2.24561 85.6629 2.34769 85.2486 2.34769C84.8343 2.34769 84.4199 2.24561 84.1092 2.14354C83.7984 2.04147 83.5913 1.83732 83.3841 1.5311C83.1769 1.32695 83.0734 1.02073 82.9698 0.816587C82.8662 0.510367 82.7626 0.204147 82.7626 0H84.1092Z" fill="white"/>
<path d="M94.5711 2.55176C95.089 2.55176 95.5033 2.65383 95.8141 2.7559C96.1248 2.85798 96.4356 3.06212 96.7463 3.26627C96.9535 3.47042 97.1606 3.77664 97.2642 4.08286C97.3678 4.38908 97.4714 4.79737 97.4714 5.20567L95.7105 5.61396C95.7105 5.20567 95.6069 4.79737 95.5033 4.59323C95.2962 4.28701 95.089 4.18493 94.6747 4.18493C94.4675 4.18493 94.2603 4.18493 94.1568 4.287C94.0532 4.38908 93.9496 4.49115 93.846 4.59323C93.7424 4.6953 93.7424 4.89945 93.7424 5.00152C93.7424 5.20567 93.7424 5.30774 93.7424 5.51189V11.4321C93.7424 11.5342 93.7424 11.6363 93.7424 11.8404C93.7424 11.9425 93.846 12.1467 93.846 12.2487C93.9496 12.3508 94.0532 12.4529 94.1568 12.5549C94.2603 12.657 94.4675 12.657 94.6747 12.657C95.3997 12.657 95.7105 12.1467 95.7105 11.228C96.0212 11.3301 96.332 11.3301 96.6427 11.3301C96.9535 11.3301 97.2642 11.4321 97.575 11.4321C97.575 12.3508 97.2642 13.0653 96.8499 13.5757C96.332 14.086 95.7105 14.3923 94.7782 14.3923C93.7424 14.3923 93.0173 14.1881 92.603 13.6778C92.0851 13.1674 91.8779 12.4529 91.8779 11.5342V5.71603C91.8779 5.30774 91.8779 4.89945 91.9815 4.49115C92.0851 4.08286 92.2923 3.77664 92.4994 3.47042C92.7066 3.1642 93.0173 2.96005 93.4317 2.7559C93.5353 2.65383 94.0532 2.55176 94.5711 2.55176Z" fill="white"/>
<path d="M103.479 4.38906V14.3922H101.615V4.38906H99.6465V2.65381H105.344V4.38906H103.479Z" fill="white"/>
<path d="M112.594 8.26784C113.112 8.47199 113.526 8.77821 113.63 9.1865C113.837 9.69687 113.941 10.2072 113.941 10.8197C113.941 12.0446 113.63 12.9632 113.112 13.4736C112.594 14.086 111.766 14.2902 110.626 14.2902H108.14V2.65381H110.73C111.766 2.65381 112.594 2.96003 113.009 3.4704C113.526 3.98076 113.734 4.79735 113.734 5.81808C113.734 6.32845 113.63 6.83882 113.423 7.24711C113.423 7.6554 113.009 7.96162 112.594 8.26784ZM112.076 5.92016C112.076 5.40979 111.973 5.0015 111.766 4.79735C111.558 4.5932 111.144 4.49113 110.73 4.49113H110.108V7.55333H110.73C111.248 7.55333 111.558 7.45126 111.766 7.14504C111.973 6.73674 112.076 6.32845 112.076 5.92016ZM112.18 10.6155C112.18 10.1052 112.076 9.69687 111.869 9.39065C111.662 9.08443 111.351 8.98236 110.833 8.98236H110.108V12.657H110.833C111.144 12.657 111.351 12.5549 111.558 12.4529C111.766 12.3508 111.869 12.2487 111.973 12.0446C112.076 11.8404 112.18 11.6363 112.18 11.4321C112.18 11.228 112.18 10.9218 112.18 10.6155Z" fill="white"/>
<path d="M121.709 7.04296L119.223 14.3922H117.462V2.65381H119.223V10.1052H119.327L121.813 2.65381H123.574V14.3922H121.709V7.04296Z" fill="white"/>
<path d="M126.682 14.3922L127.303 10.7176C127.407 10.3093 127.51 10.0031 127.717 9.69685C127.925 9.39063 128.132 9.08441 128.443 8.98233C127.925 8.77819 127.51 8.36989 127.303 7.9616C127.096 7.55331 126.992 6.94087 126.992 6.32843C126.992 5.20562 127.303 4.28696 127.821 3.67452C128.339 3.06208 129.168 2.75586 130.203 2.75586H132.897V14.4943H131.032V9.39063H130.514C130.203 9.39063 129.893 9.4927 129.582 9.79892C129.271 10.0031 129.168 10.5134 128.96 11.1259L128.443 14.3922H126.682ZM130.307 4.38903C129.789 4.38903 129.375 4.59318 129.168 4.8994C128.96 5.20562 128.857 5.61391 128.857 6.22635C128.857 6.83879 128.96 7.14501 129.271 7.45123C129.582 7.65538 129.893 7.75745 130.307 7.75745H131.032V4.38903H130.307Z" fill="white"/>
<path d="M5.59326 24.0891L2.48578 33.1736H0.310547V18.6792H2.58936V27.8658H2.69295L5.80042 18.6792H8.07924V33.1736H5.69684L5.59326 24.0891Z" fill="white"/>
<path d="M19.1628 33.1736V26.8451H16.5732V33.1736H14.2944V18.6792H16.5732V24.7015H19.2664V18.6792H21.5452V33.1736H19.1628Z" fill="white"/>
<path d="M32.8357 33.1736V26.8451H30.1426V33.1736H27.8638V18.6792H30.1426V24.7015H32.8357V18.6792H35.1146V33.1736H32.8357Z" fill="white"/>
<path d="M48.5803 29.499C48.5803 30.7239 48.2696 31.7446 47.7516 32.3571C47.1301 32.9695 46.3015 33.2757 44.9549 33.2757C43.7119 33.2757 42.7797 32.9695 42.2618 32.3571C41.7439 31.7446 41.4331 30.826 41.4331 29.7031V22.4559C41.4331 21.8435 41.5367 21.3331 41.6403 20.9248C41.7439 20.4145 41.951 20.0062 42.2618 19.7C42.5725 19.3937 42.8833 19.0875 43.4012 18.8834C43.8155 18.6792 44.437 18.5771 45.0585 18.5771C45.7836 18.5771 46.3015 18.6792 46.8194 18.8834C47.2337 19.0875 47.6481 19.2917 47.9588 19.5979C48.2696 19.9041 48.4767 20.3124 48.5803 20.8228C48.6839 21.3331 48.7875 21.8435 48.7875 22.4559V29.499H48.5803ZM46.3015 22.2518C46.3015 21.8435 46.1979 21.5373 45.9907 21.129C45.7836 20.8228 45.4728 20.6186 44.9549 20.6186C44.6442 20.6186 44.437 20.7207 44.3334 20.8228C44.1263 20.9248 44.0227 21.129 43.9191 21.2311C43.8155 21.4352 43.7119 21.6393 43.7119 21.8435C43.7119 22.0476 43.6083 22.2518 43.6083 22.4559V29.8052C43.6083 30.2135 43.7119 30.5197 43.9191 30.826C44.1263 31.1322 44.437 31.2342 44.9549 31.2342C45.4728 31.2342 45.7836 31.0301 45.9907 30.7239C46.1979 30.4177 46.3015 30.0094 46.3015 29.6011V22.2518Z" fill="white"/>
<path d="M60.2852 25.6202C60.9067 25.8243 61.4246 26.2326 61.6318 26.8451C61.839 27.4575 62.0461 28.0699 62.0461 28.8865C62.0461 30.4176 61.7354 31.5404 61.0103 32.255C60.3888 32.9695 59.353 33.2757 58.0064 33.2757H54.8989V18.6792H58.11C59.4566 18.6792 60.3888 18.9854 60.9067 19.6999C61.5282 20.4144 61.839 21.3331 61.839 22.6601C61.839 23.3746 61.7354 23.8849 61.5282 24.3953C61.321 24.9057 60.9067 25.314 60.2852 25.5181V25.6202ZM59.6637 22.6601C59.6637 21.9455 59.5601 21.5373 59.2494 21.231C58.9386 20.9248 58.5243 20.8227 57.9028 20.8227H57.1777V24.4974H57.9028C58.5243 24.4974 58.9386 24.2932 59.2494 23.987C59.5601 23.7829 59.6637 23.2725 59.6637 22.6601ZM59.7673 28.5803C59.7673 27.8658 59.6637 27.3554 59.353 27.0492C59.1458 26.743 58.6279 26.5388 58.0064 26.5388H57.1777V31.0301H58.11C58.5243 31.0301 58.7315 30.928 59.0422 30.8259C59.2494 30.7239 59.4566 30.5197 59.5601 30.3156C59.6637 30.1114 59.7673 29.8052 59.7673 29.499C59.7673 29.2948 59.7673 28.9886 59.7673 28.5803Z" fill="white"/>
<path d="M73.6471 33.1736L73.0257 30.1114H70.3325C70.2289 30.6218 70.1253 31.1321 70.0218 31.6425C69.9182 32.1529 69.8146 32.6632 69.711 33.1736H67.3286C67.8465 30.7239 68.3644 28.2741 68.7788 25.9264C69.2967 23.4766 69.8146 21.129 70.2289 18.6792H72.8185L75.8224 33.1736H73.6471ZM71.5755 22.0476C71.4719 23.0684 71.2647 24.0891 71.1612 25.0077C70.954 26.0285 70.8504 27.0492 70.6433 28.0699H72.7149L71.7827 22.0476H71.5755Z" fill="white"/>
<path d="M88.6668 18.6792V31.1322H89.599V36.0317H87.631V33.2757H81.416V18.6792H83.6948V31.1322H86.2844V18.6792H88.6668Z" fill="white"/>
<path d="M100.372 24.0891L97.2641 33.1736H95.0889V18.6792H97.3677V27.8658L100.475 18.6792H102.754V33.1736H100.475L100.372 24.0891Z" fill="white"/>
<path d="M108.451 33.1736L109.28 28.5803C109.383 28.0699 109.487 27.6617 109.798 27.2534C110.005 26.8451 110.316 26.5388 110.73 26.3347C110.005 26.0285 109.591 25.6202 109.28 25.1098C109.073 24.4974 108.866 23.8849 108.866 23.0684C108.866 21.6393 109.176 20.5165 109.901 19.802C110.626 19.0875 111.559 18.6792 112.802 18.6792H116.22V33.1736H113.941V26.9471H113.32C112.905 26.9471 112.594 27.0492 112.18 27.3554C111.869 27.6617 111.559 28.172 111.455 28.9886L110.73 33.0715H108.451V33.1736ZM113.009 20.8227C112.284 20.8227 111.869 21.0269 111.559 21.4352C111.248 21.8435 111.144 22.3538 111.144 23.0684C111.144 23.7829 111.351 24.2932 111.662 24.4974C111.973 24.8036 112.491 24.9057 113.009 24.9057H113.941V20.8227H113.009Z" fill="white"/>
<path d="M126.889 30.0094L125.853 27.3555L124.92 24.8036H124.817V33.1736H122.538V18.6792H124.817L126.474 22.7622L127.614 25.9264H127.717L128.96 22.6601L130.514 18.5771H132.689V33.0716H130.41V24.7016H130.307L129.375 27.2534L128.339 29.9073H126.889V30.0094Z" fill="white"/>
<path d="M132.793 37.563C100.786 68.3891 36.7716 63.0813 13.5691 37.563H0.310547C17.816 55.8341 42.9866 62.7751 64.1174 63.6938C66.2926 63.7958 68.4679 63.7958 70.5395 63.7958C84.2124 63.5917 99.4391 60.6316 112.698 53.6906C120.259 49.8118 127.199 44.504 132.793 37.563Z" fill="#EA2227"/>
<path d="M132.793 37.563C132.793 37.6651 132.793 37.6651 132.793 37.563C132.275 37.9713 131.757 38.2775 131.343 38.5837C96.4354 61.5502 47.9587 57.059 27.1387 37.563H13.5693C36.7718 63.0813 100.786 68.4912 132.793 37.563Z" fill="#25A8E0"/>
<path d="M125.128 40.8293C109.28 46.8517 94.3638 49.5056 81.3124 49.6076C63.0818 49.7097 48.6838 44.9123 41.0187 37.563H29.5211H27.1387C47.8552 56.8549 95.8139 61.4482 130.618 38.992C130.825 38.8899 131.136 38.6858 131.343 38.4817C131.861 38.1754 132.275 37.8692 132.793 37.563C130.203 38.7879 127.614 39.8086 125.128 40.8293Z" fill="white"/>
<path d="M41.0186 37.563C48.5802 44.7082 62.6674 49.5056 80.5872 49.5056C80.7943 49.5056 81.1051 49.5056 81.3122 49.5056C94.3636 49.4035 109.28 46.7496 125.128 40.7273C127.614 39.7066 130.203 38.6858 132.793 37.563C127.199 44.4019 120.259 49.7098 112.594 53.6906C99.3356 60.6316 84.109 63.5917 70.4361 63.7959C69.9182 63.7959 69.4003 63.7959 68.8823 63.7959C67.3286 63.7959 65.6713 63.7959 64.014 63.6938C42.8831 62.7752 17.8161 55.8342 0.207098 37.563H13.3621H26.9314H29.3138H41.0186ZM41.0186 37.461H29.521H27.1386H13.5692H0.310681C0.207098 37.461 0.207098 37.461 0.103516 37.563C0.103516 37.6651 0.103516 37.6651 0.103516 37.7672C8.39012 46.2393 18.6448 52.874 30.764 57.3653C40.915 61.142 52.5163 63.3876 64.014 63.898C65.6713 64 67.225 64 68.8823 64C69.4003 64 69.9182 64 70.4361 64C77.6869 63.898 84.8341 63.0814 91.6705 61.4482C99.232 59.713 106.276 57.1611 112.594 53.8948C120.674 49.6077 127.51 44.1978 132.793 37.6651C132.793 37.6651 132.793 37.6651 132.793 37.563C132.793 37.563 132.793 37.563 132.793 37.461C132.793 37.461 132.793 37.461 132.793 37.3589C132.793 37.3589 132.793 37.3589 132.689 37.3589H132.586C130.1 38.4817 127.51 39.6045 124.921 40.5232C110.212 46.1372 95.0887 49.1994 81.2087 49.3015C81.0015 49.3015 80.6908 49.3015 80.4836 49.3015C63.3925 49.3015 49.0981 44.9123 41.1222 37.3589C41.1222 37.461 41.1222 37.461 41.0186 37.461Z" fill="#CDCCCB"/>
</g>
<defs>
<clipPath id="clip0_346_3425">
<rect width="133" height="64" fill="white"/>
</clipPath>
</defs>
</svg>
