<svg width="18" height="19" viewBox="0 0 18 19" fill="none" xmlns="http://www.w3.org/2000/svg">
<path d="M11.4556 6.64579C11.1492 6.58598 10.8266 6.55607 10.4879 6.55607C9.90726 6.55607 9.37097 6.67196 8.87903 6.90374C8.39516 7.12804 7.97581 7.4271 7.62097 7.80093C7.26613 8.16729 6.9879 8.59346 6.78629 9.07944C6.59274 9.55794 6.49597 10.0477 6.49597 10.5486C6.49597 11.072 6.62097 11.4907 6.87097 11.8047C7.12903 12.1112 7.50806 12.2645 8.00806 12.2645C8.25 12.2645 8.49193 12.2308 8.73387 12.1636C8.98387 12.0888 9.21774 11.9617 9.43548 11.7822C9.66129 11.6028 9.87097 11.3636 10.0645 11.0645C10.2581 10.7654 10.4194 10.3841 10.5484 9.92056L11.4556 6.64579ZM12.3871 9.70748C12.2339 10.2533 12.1573 10.6981 12.1573 11.0421C12.1653 11.3785 12.2258 11.6439 12.3387 11.8383C12.4516 12.0327 12.6089 12.1673 12.8105 12.2421C13.0121 12.3093 13.2339 12.343 13.4758 12.343C13.8548 12.343 14.2137 12.2421 14.5524 12.0402C14.8992 11.8308 15.2016 11.5393 15.4597 11.1654C15.7177 10.7841 15.9234 10.3318 16.0766 9.80841C16.2298 9.28505 16.3065 8.70935 16.3065 8.08131C16.3065 7.06449 16.129 6.17103 15.7742 5.40093C15.4274 4.63084 14.9435 3.99159 14.3226 3.48318C13.7097 2.97477 12.9839 2.59346 12.1452 2.33925C11.3065 2.07757 10.3952 1.94673 9.41129 1.94673C8.33871 1.94673 7.33468 2.13738 6.39919 2.51869C5.46371 2.89252 4.64919 3.41215 3.95565 4.07757C3.27016 4.74299 2.72581 5.53178 2.32258 6.44392C1.92742 7.3486 1.72984 8.33178 1.72984 9.39346C1.72984 10.6495 1.94355 11.7561 2.37097 12.7131C2.79839 13.6701 3.37903 14.4701 4.1129 15.1131C4.85484 15.7486 5.72581 16.2271 6.72581 16.5486C7.72581 16.8776 8.79839 17.0421 9.94355 17.0421C11.1694 17.0421 12.25 16.9224 13.1855 16.6832C14.121 16.4439 14.9153 16.1411 15.5685 15.7748C15.746 15.6776 15.8992 15.6477 16.0282 15.685C16.1573 15.7224 16.254 15.8159 16.3185 15.9654L16.6452 16.7729C15.7903 17.2963 14.8065 17.715 13.6935 18.029C12.5806 18.343 11.3306 18.5 9.94355 18.5C8.52419 18.5 7.20968 18.2907 6 17.872C4.79032 17.4607 3.7379 16.8626 2.84274 16.0776C1.95564 15.3 1.25806 14.3505 0.75 13.229C0.25 12.1 0 10.8215 0 9.39346C0 8.58598 0.108871 7.80467 0.326613 7.04953C0.552419 6.29439 0.866935 5.58785 1.27016 4.92991C1.67339 4.27196 2.16129 3.67009 2.73387 3.1243C3.30645 2.5785 3.93952 2.11121 4.63306 1.72243C5.32661 1.33364 6.07661 1.03458 6.88306 0.825233C7.68952 0.608411 8.53226 0.5 9.41129 0.5C10.1613 0.5 10.8952 0.578504 11.6129 0.735513C12.3306 0.885046 13.004 1.10934 13.6331 1.40841C14.2702 1.7 14.8548 2.06262 15.3871 2.49626C15.9274 2.92243 16.3871 3.41963 16.7661 3.98785C17.1532 4.5486 17.4556 5.1729 17.6734 5.86075C17.8911 6.54112 18 7.28131 18 8.08131C18 8.88879 17.875 9.63645 17.625 10.3243C17.375 11.0121 17.0323 11.6103 16.5968 12.1187C16.1613 12.6196 15.6452 13.0159 15.0484 13.3075C14.4597 13.5916 13.8226 13.7336 13.1371 13.7336C12.5323 13.7336 12.0242 13.5991 11.6129 13.3299C11.2097 13.0607 10.9476 12.6421 10.8266 12.0738C10.3589 12.657 9.85081 13.0757 9.30242 13.3299C8.7621 13.5766 8.17742 13.7 7.54839 13.7C7.06452 13.7 6.64113 13.6215 6.27823 13.4645C5.91532 13.3075 5.6129 13.0907 5.37097 12.814C5.12903 12.5374 4.94758 12.2121 4.82661 11.8383C4.71371 11.457 4.65726 11.0458 4.65726 10.6047C4.65726 9.96916 4.78629 9.32991 5.04435 8.68692C5.31048 8.03645 5.70161 7.44953 6.21774 6.92617C6.74193 6.4028 7.39113 5.97664 8.16532 5.64766C8.93952 5.31869 9.83871 5.15421 10.8629 5.15421C11.4194 5.15421 11.9073 5.19533 12.3266 5.27757C12.746 5.35981 13.1452 5.4757 13.5242 5.62523L12.3871 9.70748Z" fill="#CCD9D9"/>
</svg>
