<svg width="54" height="53" viewBox="0 0 54 53" fill="none" xmlns="http://www.w3.org/2000/svg">
<path d="M9.01333 7.28767C9.01333 7.83996 9.46105 8.28767 10.0133 8.28767C10.5656 8.28767 11.0133 7.83996 11.0133 7.28767H9.01333ZM20.4133 3.49315C19.861 3.49315 19.4133 3.94087 19.4133 4.49315C19.4133 5.04543 19.861 5.49315 20.4133 5.49315V3.49315ZM25.96 5.49315C26.5123 5.49315 26.96 5.04543 26.96 4.49315C26.96 3.94087 26.5123 3.49315 25.96 3.49315V5.49315ZM14.8667 36.3288C14.3144 36.3288 13.8667 36.7765 13.8667 37.3288C13.8667 37.8811 14.3144 38.3288 14.8667 38.3288V36.3288ZM31.8533 38.3288C32.4056 38.3288 32.8533 37.8811 32.8533 37.3288C32.8533 36.7765 32.4056 36.3288 31.8533 36.3288V38.3288ZM14.8667 43.3151C14.3144 43.3151 13.8667 43.7628 13.8667 44.3151C13.8667 44.8674 14.3144 45.3151 14.8667 45.3151V43.3151ZM28.04 45.3151C28.5923 45.3151 29.04 44.8674 29.04 44.3151C29.04 43.7628 28.5923 43.3151 28.04 43.3151V45.3151ZM14.8667 39.8219C14.3144 39.8219 13.8667 40.2696 13.8667 40.8219C13.8667 41.3742 14.3144 41.8219 14.8667 41.8219V39.8219ZM23.5333 41.8219C24.0856 41.8219 24.5333 41.3742 24.5333 40.8219C24.5333 40.2696 24.0856 39.8219 23.5333 39.8219V41.8219ZM11.0133 35.7514C11.0133 35.1992 10.5656 34.7514 10.0133 34.7514C9.46105 34.7514 9.01333 35.1992 9.01333 35.7514H11.0133ZM36.0206 51.3088L35.0207 51.2982V51.2982L36.0206 51.3088ZM37.3599 19.1749C37.3658 18.6227 36.9228 18.1703 36.3706 18.1644C35.8183 18.1586 35.3659 18.6016 35.3601 19.1538L37.3599 19.1749ZM3.95755 28.8593L3.22175 29.5364L3.95755 28.8593ZM20.2291 28.8593L20.9649 29.5364L20.2291 28.8593ZM44.085 38.184L43.7977 39.1418C44.3208 39.2987 44.8731 39.0069 45.0382 38.4863L44.085 38.184ZM41.0705 36.3311L40.3038 35.6891C39.9768 36.0796 39.9955 36.6534 40.3473 37.0218L41.0705 36.3311ZM39.2741 32.8946L38.2941 33.0935C38.3961 33.5963 38.8621 33.9402 39.3726 33.8897L39.2741 32.8946ZM39.4508 29.3911L39.4652 28.3912C39.0223 28.3848 38.6279 28.6706 38.4961 29.0935L39.4508 29.3911ZM41.3467 26.3697L40.6629 25.64C40.3424 25.9403 40.2554 26.4146 40.4484 26.8092L41.3467 26.3697ZM44.2127 24.7534L45.1049 24.3017C44.8895 23.8762 44.4035 23.662 43.944 23.7902L44.2127 24.7534ZM47.9206 24.7534L48.1893 23.7902C47.7299 23.662 47.2439 23.8762 47.0284 24.3017L47.9206 24.7534ZM50.7867 26.3697L51.6849 26.8092C51.878 26.4146 51.7909 25.9403 51.4704 25.64L50.7867 26.3697ZM52.6825 29.3911L53.6372 29.0935C53.5054 28.6706 53.111 28.3848 52.6681 28.3912L52.6825 29.3911ZM52.8592 32.8946L52.7607 33.8897C53.2712 33.9402 53.7372 33.5963 53.8393 33.0935L52.8592 32.8946ZM51.0629 36.3311L51.786 37.0217C52.1378 36.6534 52.1565 36.0796 51.8296 35.6891L51.0629 36.3311ZM48.0483 38.184L47.0951 38.4863C47.2602 39.0069 47.8125 39.2987 48.3356 39.1418L48.0483 38.184ZM11.0133 7.28767V1.69863H9.01333V7.28767H11.0133ZM10.7067 2H35.6667V0H10.7067V2ZM35.36 1.69863V6.95674H37.36V1.69863H35.36ZM35.6667 2C35.4901 2 35.36 1.85788 35.36 1.69863H37.36C37.36 0.76769 36.609 0 35.6667 0V2ZM11.0133 1.69863C11.0133 1.85788 10.8832 2 10.7067 2V0C9.7643 0 9.01333 0.767691 9.01333 1.69863H11.0133ZM20.4133 5.49315H25.96V3.49315H20.4133V5.49315ZM31.8533 11.7808H41.56V9.78082H31.8533V11.7808ZM41.56 14.6712H31.8533V16.6712H41.56V14.6712ZM31.8533 14.6712C30.4418 14.6712 29.7333 13.8109 29.7333 13.226H27.7333C27.7333 15.342 29.8186 16.6712 31.8533 16.6712V14.6712ZM43.68 13.226C43.68 13.8109 42.9715 14.6712 41.56 14.6712V16.6712C43.5947 16.6712 45.68 15.342 45.68 13.226H43.68ZM41.56 11.7808C42.9715 11.7808 43.68 12.6411 43.68 13.226H45.68C45.68 11.11 43.5947 9.78082 41.56 9.78082V11.7808ZM31.8533 9.78082C29.8186 9.78082 27.7333 11.11 27.7333 13.226H29.7333C29.7333 12.6411 30.4418 11.7808 31.8533 11.7808V9.78082ZM14.8667 38.3288H31.8533V36.3288H14.8667V38.3288ZM14.8667 45.3151H28.04V43.3151H14.8667V45.3151ZM14.8667 41.8219H23.5333V39.8219H14.8667V41.8219ZM9.01333 35.7514V51.3014H11.0133V35.7514H9.01333ZM10.7067 53H35.3273V51H10.7067V53ZM37.0206 51.3194L37.3599 19.1749L35.3601 19.1538L35.0207 51.2982L37.0206 51.3194ZM35.3273 53C36.2626 53 37.0108 52.2433 37.0206 51.3194L35.0207 51.2982C35.0224 51.1401 35.1522 51 35.3273 51V53ZM9.01333 51.3014C9.01333 52.2323 9.7643 53 10.7067 53V51C10.8832 51 11.0133 51.1421 11.0133 51.3014H9.01333ZM2 21.2603C2 15.6319 6.5261 11.0822 12.0933 11.0822V9.08219C5.40721 9.08219 0 14.5417 0 21.2603H2ZM12.0933 11.0822C17.6606 11.0822 22.1867 15.6319 22.1867 21.2603H24.1867C24.1867 14.5417 18.7795 9.08219 12.0933 9.08219V11.0822ZM12.0933 31.4384C9.17121 31.4384 6.5389 30.1873 4.69336 28.1821L3.22175 29.5364C5.42828 31.934 8.58637 33.4384 12.0933 33.4384V31.4384ZM4.69336 28.1821C3.02178 26.3658 2 23.935 2 21.2603H0C0 24.4543 1.22245 27.3641 3.22175 29.5364L4.69336 28.1821ZM22.1867 21.2603C22.1867 23.935 21.1649 26.3658 19.4933 28.1821L20.9649 29.5364C22.9642 27.3641 24.1867 24.4543 24.1867 21.2603H22.1867ZM19.4933 28.1821C17.6478 30.1873 15.0155 31.4384 12.0933 31.4384V33.4384C15.6003 33.4384 18.7584 31.934 20.9649 29.5364L19.4933 28.1821ZM3.95755 28.8593C4.88203 29.2405 4.88176 29.2412 4.88149 29.2418C4.88141 29.242 4.88114 29.2426 4.88098 29.243C4.88065 29.2438 4.88034 29.2446 4.88006 29.2452C4.87948 29.2466 4.879 29.2478 4.8786 29.2487C4.87781 29.2505 4.87737 29.2516 4.87729 29.2517C4.87714 29.2521 4.87844 29.2491 4.88129 29.243C4.88701 29.2309 4.89891 29.2064 4.91776 29.1714C4.9555 29.1012 5.02086 28.989 5.11998 28.8483C5.31798 28.5673 5.65059 28.1728 6.16838 27.7711C7.19015 26.9785 9.00425 26.1027 12.0933 26.1027V24.1027C8.59575 24.1027 6.34196 25.1052 4.9425 26.1909C4.24969 26.7283 3.78335 27.273 3.48506 27.6963C3.33603 27.9078 3.22891 28.0891 3.1562 28.2243C3.11983 28.292 3.09202 28.3482 3.07182 28.3911C3.06172 28.4125 3.05352 28.4307 3.04711 28.4452C3.0439 28.4525 3.04113 28.4589 3.0388 28.4644C3.03763 28.4671 3.03657 28.4696 3.03562 28.4719C3.03514 28.473 3.03469 28.4741 3.03427 28.4751C3.03406 28.4756 3.03376 28.4764 3.03365 28.4766C3.03336 28.4773 3.03308 28.478 3.95755 28.8593ZM12.0933 26.1027C15.1824 26.1027 16.9965 26.9785 18.0183 27.7711C18.5361 28.1728 18.8687 28.5673 19.0667 28.8483C19.1658 28.989 19.2312 29.1012 19.2689 29.1714C19.2878 29.2064 19.2997 29.2309 19.3054 29.243C19.3082 29.2491 19.3095 29.2521 19.3094 29.2517C19.3093 29.2516 19.3089 29.2505 19.3081 29.2487C19.3077 29.2478 19.3072 29.2466 19.3066 29.2452C19.3063 29.2446 19.306 29.2438 19.3057 29.243C19.3055 29.2426 19.3053 29.242 19.3052 29.2418C19.3049 29.2412 19.3046 29.2405 20.2291 28.8593C21.1536 28.478 21.1533 28.4773 21.153 28.4766C21.1529 28.4764 21.1526 28.4756 21.1524 28.4751C21.152 28.4741 21.1515 28.473 21.151 28.4719C21.1501 28.4696 21.149 28.4671 21.1479 28.4644C21.1455 28.4589 21.1428 28.4525 21.1396 28.4452C21.1331 28.4307 21.1249 28.4125 21.1148 28.3911C21.0946 28.3482 21.0668 28.292 21.0305 28.2243C20.9578 28.0891 20.8506 27.9078 20.7016 27.6963C20.4033 27.273 19.937 26.7283 19.2442 26.1909C17.8447 25.1052 15.5909 24.1027 12.0933 24.1027V26.1027ZM14.56 18.4658C14.56 19.8499 13.4485 20.9589 12.0933 20.9589V22.9589C14.5674 22.9589 16.56 20.9401 16.56 18.4658H14.56ZM12.0933 20.9589C10.7382 20.9589 9.62667 19.8499 9.62667 18.4658H7.62667C7.62667 20.9401 9.6193 22.9589 12.0933 22.9589V20.9589ZM9.62667 18.4658C9.62667 17.0816 10.7382 15.9726 12.0933 15.9726V13.9726C9.6193 13.9726 7.62667 15.9914 7.62667 18.4658H9.62667ZM12.0933 15.9726C13.4485 15.9726 14.56 17.0816 14.56 18.4658H16.56C16.56 15.9914 14.5674 13.9726 12.0933 13.9726V15.9726ZM44.3724 37.2261C43.3809 36.9287 42.4959 36.3757 41.7936 35.6404L40.3473 37.0218C41.2827 38.0011 42.4658 38.7422 43.7977 39.1418L44.3724 37.2261ZM41.8372 36.9731C42.2882 36.4344 42.56 35.7375 42.56 34.9803H40.56C40.56 35.2524 40.4636 35.4982 40.3038 35.6891L41.8372 36.9731ZM42.56 34.9803C42.56 33.2777 41.1882 31.8844 39.48 31.8844V33.8844C40.0693 33.8844 40.56 34.3679 40.56 34.9803H42.56ZM39.48 31.8844C39.3776 31.8844 39.2761 31.8895 39.1755 31.8994L39.3726 33.8897C39.4076 33.8862 39.4434 33.8844 39.48 33.8844V31.8844ZM40.2541 32.6956C40.175 32.3061 40.1333 31.9021 40.1333 31.4872H38.1333C38.1333 32.0364 38.1886 32.5738 38.2941 33.0935L40.2541 32.6956ZM40.1333 31.4872C40.1333 30.8589 40.2289 30.2551 40.4055 29.6887L38.4961 29.0935C38.2601 29.8505 38.1333 30.6549 38.1333 31.4872H40.1333ZM39.4364 30.391C39.4509 30.3912 39.4654 30.3913 39.48 30.3913V28.3913C39.4751 28.3913 39.4702 28.3912 39.4652 28.3912L39.4364 30.391ZM39.48 30.3913C41.1882 30.3913 42.56 28.998 42.56 27.2954H40.56C40.56 27.9078 40.0693 28.3913 39.48 28.3913V30.3913ZM42.56 27.2954C42.56 26.8076 42.4471 26.3433 42.2449 25.9302L40.4484 26.8092C40.5194 26.9543 40.56 27.1185 40.56 27.2954H42.56ZM42.0304 27.0994C42.7178 26.4554 43.555 25.9751 44.4814 25.7167L43.944 23.7902C42.6993 24.1374 41.5792 24.7815 40.6629 25.64L42.0304 27.0994ZM43.3206 25.2051C43.8268 26.2051 44.8634 26.8981 46.0667 26.8981V24.8981C45.6521 24.8981 45.2866 24.6606 45.1049 24.3017L43.3206 25.2051ZM46.0667 26.8981C47.2699 26.8981 48.3065 26.2051 48.8128 25.2051L47.0284 24.3017C46.8467 24.6606 46.4812 24.8981 46.0667 24.8981V26.8981ZM47.6519 25.7167C48.5784 25.9751 49.4156 26.4554 50.1029 27.0994L51.4704 25.64C50.5542 24.7815 49.4341 24.1374 48.1893 23.7902L47.6519 25.7167ZM49.8884 25.9302C49.6863 26.3433 49.5733 26.8076 49.5733 27.2954H51.5733C51.5733 27.1186 51.6139 26.9544 51.6849 26.8092L49.8884 25.9302ZM49.5733 27.2954C49.5733 28.998 50.9451 30.3913 52.6533 30.3913V28.3913C52.064 28.3913 51.5733 27.9078 51.5733 27.2954H49.5733ZM52.6533 30.3913C52.6679 30.3913 52.6825 30.3912 52.6969 30.391L52.6681 28.3912C52.6632 28.3912 52.6582 28.3913 52.6533 28.3913V30.3913ZM51.7278 29.6887C51.9044 30.2551 52 30.8589 52 31.4872H54C54 30.6549 53.8732 29.8504 53.6372 29.0935L51.7278 29.6887ZM52 31.4872C52 31.9021 51.9583 32.3061 51.8792 32.6956L53.8393 33.0935C53.9448 32.5738 54 32.0364 54 31.4872H52ZM52.9578 31.8994C52.8573 31.8895 52.7557 31.8844 52.6533 31.8844V33.8844C52.69 33.8844 52.7258 33.8862 52.7607 33.8897L52.9578 31.8994ZM52.6533 31.8844C50.9451 31.8844 49.5733 33.2777 49.5733 34.9803H51.5733C51.5733 34.3679 52.064 33.8844 52.6533 33.8844V31.8844ZM49.5733 34.9803C49.5733 35.7375 49.8451 36.4344 50.2961 36.9731L51.8296 35.6891C51.6697 35.4982 51.5733 35.2524 51.5733 34.9803H49.5733ZM50.3397 35.6404C49.6375 36.3757 48.7524 36.9287 47.7609 37.2261L48.3356 39.1418C49.6676 38.7422 50.8507 38.0011 51.786 37.0217L50.3397 35.6404ZM49.0015 37.8816C48.6067 36.6372 47.4468 35.7269 46.0667 35.7269V37.7269C46.5419 37.7269 46.9536 38.0405 47.0951 38.4863L49.0015 37.8816ZM46.0667 35.7269C44.6865 35.7269 43.5266 36.6372 43.1319 37.8816L45.0382 38.4863C45.1797 38.0405 45.5915 37.7269 46.0667 37.7269V35.7269ZM46.0667 34.9325C47.9663 34.9325 49.4933 33.3828 49.4933 31.4873H47.4933C47.4933 32.2926 46.8474 32.9325 46.0667 32.9325V34.9325ZM49.4933 31.4873C49.4933 29.5917 47.9663 28.0421 46.0667 28.0421V30.0421C46.8474 30.0421 47.4933 30.6819 47.4933 31.4873H49.4933ZM46.0667 28.0421C44.167 28.0421 42.64 29.5917 42.64 31.4873H44.64C44.64 30.6819 45.2859 30.0421 46.0667 30.0421V28.0421ZM42.64 31.4873C42.64 33.3828 44.167 34.9325 46.0667 34.9325V32.9325C45.2859 32.9325 44.64 32.2926 44.64 31.4873H42.64Z" fill="#1C8785"/>
</svg>
