<svg width="133" height="37" viewBox="0 0 133 37" fill="none" xmlns="http://www.w3.org/2000/svg">
<g clip-path="url(#clip0_346_3458)">
<path d="M9.35772 0.000488281C4.18993 0.000488281 0 4.14155 0 9.25037V27.7508C0 32.8594 4.18993 37.0005 9.35772 37.0005H28.0737C33.2417 37.0005 37.4316 32.8594 37.4316 27.7508V0.000488281H9.35772Z" fill="#B1EC52"/>
<path d="M10.2303 14.7748C9.92419 13.4516 11.2598 12.2807 12.9875 12.2807C14.5438 12.2807 16.1037 12.6256 16.6972 14.7704H18.6922V18.0436C16.2049 16.0226 10.8126 17.2906 10.2303 14.7748ZM30.9302 13.8687H26.4362L22.161 18.4971V9.25002H18.6922V11.4906C18.579 11.3461 18.4596 11.2026 18.326 11.0625C17.0645 9.74258 15.2472 9.07336 12.9236 9.07336C10.2365 9.07336 8.7088 10.2621 7.9002 11.2592C6.8959 12.497 6.44751 14.1866 6.75782 15.5632C7.56166 19.127 10.907 19.6961 13.3646 20.0119C15.3049 20.2614 17.1611 20.6095 17.1118 22.3191C17.0604 24.0931 15.0373 24.5293 13.7094 24.5293C10.2508 24.5293 10.1342 22.0023 10.1342 22.0023H6.41455C6.4689 22.9513 6.75901 24.4748 7.94087 25.7821C9.23493 27.2145 11.1758 27.9404 13.7094 27.9404C15.6529 27.9404 17.4233 27.3146 18.6922 26.2033V27.7306H22.161V23.3655L23.3884 22.0385L26.892 27.7306H30.929L25.8304 19.3937L30.9302 13.8687Z" fill="white"/>
<path d="M53.0742 17.5284C52.9773 17.3555 52.8416 17.1826 52.7056 17.01C52.55 16.8565 52.3754 16.703 52.1426 16.5686C51.9288 16.4341 51.6571 16.3384 51.3465 16.2424C51.0356 16.1655 50.6864 16.1271 50.2591 16.1271C50.0845 16.1271 49.871 16.1465 49.6379 16.1846C49.4048 16.2424 49.1524 16.319 48.9 16.4341C48.6475 16.5686 48.3952 16.7415 48.1428 16.9528C47.9099 17.1635 47.6769 17.4518 47.5019 17.7969C47.2887 18.1618 47.1331 18.5836 47.0164 19.0826C46.9003 19.5816 46.8421 20.1766 46.8421 20.8676C46.8421 21.6161 46.9196 22.2685 47.075 22.8635C47.2303 23.4588 47.4633 23.9578 47.7543 24.3605C48.0459 24.7638 48.4148 25.0706 48.8418 25.2819C49.2495 25.4929 49.7347 25.6081 50.2591 25.6081C50.8806 25.6081 51.3658 25.512 51.7543 25.3394C52.1426 25.1475 52.4533 24.917 52.686 24.6485C52.9192 24.3802 53.0941 24.092 53.1909 23.804C53.3073 23.5164 53.4046 23.2475 53.4626 23.0364H56.3554C56.2004 23.9 55.948 24.6485 55.5789 25.2819C55.2101 25.9151 54.7635 26.4331 54.2394 26.8555C53.7149 27.2779 53.1326 27.5849 52.4726 27.796C51.8121 28.0073 51.1134 28.103 50.3758 28.103C49.3466 28.103 48.4148 27.9304 47.6186 27.5849C46.8226 27.2585 46.1431 26.7598 45.5994 26.1458C45.0557 25.512 44.648 24.7444 44.3567 23.8425C44.0657 22.9598 43.9297 21.9618 43.9297 20.8676C43.9297 20.0233 44.0075 19.2555 44.1821 18.5645C44.3374 17.8736 44.5705 17.2595 44.8615 16.7224C45.1528 16.1846 45.502 15.7434 45.91 15.3401C46.2984 14.9562 46.7254 14.6301 47.2109 14.3806C47.6769 14.1311 48.1624 13.9392 48.6865 13.805C49.2106 13.6896 49.7347 13.6321 50.2591 13.6321C51.0163 13.6321 51.696 13.7093 52.2783 13.8625C52.8609 14.0354 53.3851 14.2273 53.8314 14.496C54.278 14.7645 54.6471 15.0525 54.9577 15.3977C55.2683 15.7434 55.54 16.0889 55.7345 16.4341C55.9287 16.799 56.0644 17.1636 56.1811 17.509C56.2779 17.8736 56.3361 18.2 56.3554 18.507H53.4432L53.3073 18.0465C53.2491 17.8736 53.1716 17.7204 53.0742 17.5284Z" fill="white"/>
<path d="M64.1106 17.5478H67.6834L63.4118 21.7892L67.858 27.7578H64.3629L61.3341 23.4394L60.2469 24.5337V27.7578H57.5679V17.5478H60.2469V21.4247L64.1106 17.5478Z" fill="white"/>
<path d="M70.2923 23.785C70.3704 24.1686 70.5061 24.5141 70.7196 24.8021C70.9139 25.1091 71.1662 25.3586 71.4769 25.5315C71.7875 25.7044 72.1759 25.8001 72.6421 25.8001C73.127 25.8001 73.535 25.7044 73.8456 25.5315C74.1565 25.3586 74.4089 25.1091 74.6028 24.8215C74.797 24.5335 74.933 24.2074 75.0105 23.8232C75.088 23.4392 75.1269 23.0556 75.1269 22.6526C75.1269 22.2495 75.088 21.8656 75.0105 21.482C74.933 21.0981 74.797 20.7525 74.6028 20.4649C74.4089 20.1766 74.1565 19.9466 73.8456 19.7546C73.535 19.5817 73.127 19.5051 72.6421 19.5051C72.1759 19.5051 71.7875 19.6011 71.4769 19.774C71.1662 19.9466 70.9139 20.1957 70.7196 20.484C70.5061 20.791 70.3704 21.1171 70.2923 21.501C70.2148 21.8847 70.1566 22.2686 70.1566 22.6526C70.1566 23.0365 70.2148 23.4201 70.2923 23.785ZM67.7297 20.484C67.9628 19.8121 68.312 19.2365 68.7779 18.7566C69.2441 18.277 69.7878 17.9121 70.448 17.6433C71.1077 17.3746 71.8263 17.2405 72.6421 17.2405C73.4768 17.2405 74.2147 17.3746 74.8745 17.6433C75.5347 17.9121 76.0784 18.277 76.5246 18.7566C76.9716 19.2365 77.3213 19.8121 77.5737 20.484C77.8063 21.1368 77.9226 21.8656 77.9226 22.6526C77.9226 23.4392 77.8063 24.1686 77.5737 24.8215C77.3213 25.493 76.9716 26.0687 76.5246 26.5486C76.0784 27.0091 75.5347 27.3931 74.8745 27.6619C74.2147 27.9305 73.4768 28.0649 72.6421 28.0649C71.8263 28.0649 71.1077 27.9305 70.448 27.6619C69.7878 27.3931 69.2441 27.0091 68.7779 26.5486C68.312 26.0687 67.9628 25.493 67.7297 24.8215C67.4965 24.1686 67.3608 23.4392 67.3608 22.6526C67.3608 21.8656 67.4965 21.1368 67.7297 20.484Z" fill="white"/>
<path d="M82.9711 19.6968L82.9331 21.5971C82.8936 22.6716 82.816 23.6121 82.7187 24.4182C82.6024 25.2245 82.4276 25.8961 82.195 26.4332C81.9426 26.9709 81.6127 27.3737 81.2045 27.6619C80.797 27.9305 80.2535 28.0649 79.6126 28.0649C79.3017 28.0649 79.0493 28.0456 78.8167 28.0265C78.5833 27.988 78.4085 27.9305 78.2534 27.8727V25.6465C78.3507 25.6847 78.467 25.7235 78.6031 25.7619C78.7384 25.781 78.8943 25.8001 79.0881 25.8001C79.3017 25.8001 79.4766 25.7426 79.6316 25.6081C79.7875 25.493 79.9235 25.282 80.0399 24.9559C80.1562 24.6292 80.2337 24.1877 80.3112 23.6121C80.3698 23.0365 80.4085 22.3071 80.4283 21.4054L80.5058 17.5475H88.8154V27.7576H86.1555V19.6968H82.9711Z" fill="white"/>
<path d="M97.3144 17.5478H100.887L96.615 21.7892L101.061 27.7578H97.5668L94.5374 23.4394L93.4504 24.5337V27.7578H90.7715V17.5478H93.4504V21.4247L97.3144 17.5478Z" fill="white"/>
<path d="M103.496 23.785C103.574 24.1686 103.71 24.5141 103.923 24.8021C104.117 25.1091 104.369 25.3586 104.68 25.5315C104.991 25.7044 105.379 25.8001 105.846 25.8001C106.331 25.8001 106.738 25.7044 107.049 25.5315C107.36 25.3586 107.612 25.1091 107.806 24.8215C108.001 24.5335 108.136 24.2074 108.214 23.8232C108.292 23.4392 108.331 23.0556 108.331 22.6526C108.331 22.2495 108.292 21.8656 108.214 21.482C108.136 21.0981 108.001 20.7525 107.806 20.4649C107.612 20.1766 107.36 19.9466 107.049 19.7546C106.738 19.5817 106.331 19.5051 105.846 19.5051C105.379 19.5051 104.991 19.6011 104.68 19.774C104.369 19.9466 104.117 20.1957 103.923 20.484C103.71 20.791 103.574 21.1171 103.496 21.501C103.418 21.8847 103.36 22.2686 103.36 22.6526C103.36 23.0365 103.418 23.4201 103.496 23.785ZM100.933 20.484C101.166 19.8121 101.516 19.2365 101.982 18.7566C102.448 18.277 102.991 17.9121 103.651 17.6433C104.312 17.3746 105.03 17.2405 105.846 17.2405C106.68 17.2405 107.419 17.3746 108.078 17.6433C108.738 17.9121 109.282 18.277 109.729 18.7566C110.175 19.2365 110.525 19.8121 110.777 20.484C111.01 21.1368 111.126 21.8656 111.126 22.6526C111.126 23.4392 111.01 24.1686 110.777 24.8215C110.525 25.493 110.175 26.0687 109.729 26.5486C109.282 27.0091 108.738 27.3931 108.078 27.6619C107.419 27.9305 106.68 28.0649 105.846 28.0649C105.03 28.0649 104.312 27.9305 103.651 27.6619C102.991 27.3931 102.448 27.0091 101.982 26.5486C101.516 26.0687 101.166 25.493 100.933 24.8215C100.7 24.1686 100.564 23.4392 100.564 22.6526C100.564 21.8656 100.7 21.1368 100.933 20.484Z" fill="white"/>
<path d="M118.07 25.7621C118.303 25.6658 118.478 25.5699 118.614 25.4357C118.73 25.3206 118.828 25.186 118.866 25.0327C118.905 24.8789 118.924 24.7447 118.924 24.6103C118.924 24.3608 118.905 24.1497 118.828 23.9772C118.769 23.8234 118.672 23.689 118.517 23.5932C118.381 23.4782 118.187 23.4203 117.954 23.3819C117.721 23.3438 117.449 23.3244 117.119 23.3244H115.061V25.8769H117.119C117.507 25.8769 117.837 25.8387 118.07 25.7621ZM117.896 21.4822C118.09 21.4247 118.245 21.3668 118.362 21.2712C118.478 21.194 118.575 21.0792 118.614 20.9444C118.672 20.8103 118.692 20.6374 118.692 20.4651C118.692 20.3113 118.672 20.1769 118.614 20.0427C118.575 19.9274 118.478 19.8123 118.362 19.7166C118.264 19.6394 118.109 19.5628 117.915 19.5053C117.721 19.4474 117.488 19.4284 117.196 19.4284H115.061V21.5588H117.119C117.429 21.5588 117.681 21.5206 117.896 21.4822ZM119.099 17.6628C119.526 17.7588 119.915 17.8936 120.264 18.0849C120.594 18.2963 120.866 18.5648 121.06 18.9106C121.254 19.2558 121.352 19.697 121.352 20.2347C121.352 20.5417 121.332 20.8103 121.254 21.0217C121.196 21.2518 121.099 21.4438 120.983 21.5973C120.866 21.7701 120.73 21.9043 120.594 22.0003C120.439 22.1153 120.303 22.2116 120.128 22.2882C120.653 22.4611 121.041 22.7488 121.313 23.1518C121.584 23.5548 121.72 24.0156 121.72 24.5719C121.72 25.0518 121.643 25.4932 121.488 25.8769C121.313 26.2611 121.079 26.6063 120.769 26.8749C120.458 27.1628 120.089 27.3739 119.643 27.5277C119.196 27.6809 118.711 27.7578 118.167 27.7578H112.381V17.5478H117.721C118.206 17.5478 118.653 17.5859 119.099 17.6628Z" fill="white"/>
<path d="M125.371 23.785C125.448 24.1686 125.584 24.5141 125.798 24.8021C125.992 25.1091 126.244 25.3586 126.555 25.5315C126.866 25.7044 127.253 25.8001 127.72 25.8001C128.205 25.8001 128.613 25.7044 128.924 25.5315C129.235 25.3586 129.487 25.1091 129.681 24.8215C129.875 24.5335 130.011 24.2074 130.088 23.8232C130.167 23.4392 130.205 23.0556 130.205 22.6526C130.205 22.2495 130.167 21.8656 130.088 21.482C130.011 21.0981 129.875 20.7525 129.681 20.4649C129.487 20.1766 129.235 19.9466 128.924 19.7546C128.613 19.5817 128.205 19.5051 127.72 19.5051C127.253 19.5051 126.866 19.6011 126.555 19.774C126.244 19.9466 125.992 20.1957 125.798 20.484C125.584 20.791 125.448 21.1171 125.371 21.501C125.293 21.8847 125.234 22.2686 125.234 22.6526C125.234 23.0365 125.293 23.4201 125.371 23.785ZM122.808 20.484C123.041 19.8121 123.39 19.2365 123.856 18.7566C124.322 18.277 124.866 17.9121 125.526 17.6433C126.185 17.3746 126.905 17.2405 127.72 17.2405C128.555 17.2405 129.292 17.3746 129.953 17.6433C130.613 17.9121 131.156 18.277 131.602 18.7566C132.049 19.2365 132.399 19.8121 132.652 20.484C132.884 21.1368 133 21.8656 133 22.6526C133 23.4392 132.884 24.1686 132.652 24.8215C132.399 25.493 132.049 26.0687 131.602 26.5486C131.156 27.0091 130.613 27.3931 129.953 27.6619C129.292 27.9305 128.555 28.0649 127.72 28.0649C126.905 28.0649 126.185 27.9305 125.526 27.6619C124.866 27.3931 124.322 27.0091 123.856 26.5486C123.39 26.0687 123.041 25.493 122.808 24.8215C122.575 24.1686 122.438 23.4392 122.438 22.6526C122.438 21.8656 122.575 21.1368 122.808 20.484Z" fill="white"/>
</g>
<defs>
<clipPath id="clip0_346_3458">
<rect width="133" height="37" fill="white"/>
</clipPath>
</defs>
</svg>
