<svg width="18" height="19" viewBox="0 0 18 19" fill="none" xmlns="http://www.w3.org/2000/svg">
<path d="M16.0507 2.13242C16.0507 2.13242 17.6233 1.48314 17.4922 3.05998C17.4486 3.70927 17.0554 5.98177 16.7496 8.4398L15.7012 15.7211C15.7012 15.7211 15.6139 16.7878 14.8275 16.9733C14.0412 17.1588 12.8618 16.324 12.6433 16.1385C12.4686 15.9994 9.36704 13.9123 8.27491 12.892C7.96912 12.6138 7.61964 12.0572 8.31859 11.408L12.9054 6.77021C13.4296 6.21367 13.9538 4.9151 11.7696 6.49194L5.65388 10.8978C5.65388 10.8978 4.95493 11.3616 3.64444 10.9442L0.804956 10.0166C0.804956 10.0166 -0.243463 9.32098 1.54759 8.62528C5.916 6.44553 11.2891 4.2194 16.0507 2.13242Z" fill="#CCD9D9"/>
</svg>
